# xmcd
#
# Track frame offsets:
#	150
#	16355
#	33140
#	51073
#	59782
#	79347
#	96126
#	113432
#	128508
#	151015
#	171855
#	191227
#
# Disc length: 2733 seconds
#
# Revision: 0
# Processed by: cddbd v1.5.2PL0 Copyright (c) Steve Scherf et al.
# Submitted via: dBpowerAMP V4.0
#
DISCID=910aab0c
DTITLE=Ceux Qui Marchent Debout - Check that funk
DYEAR=2008
DGENRE=Funk
TTITLE0=Super soul
TTITLE1=She don't love me
TTITLE2=Procrastinate
TTITLE3=Surfin italia
TTITLE4=Got a light
TTITLE5=It's a good deed I do
TTITLE6=We make it
TTITLE7=Old n°7
TTITLE8=When you shake it
TTITLE9=Dragon blues
TTITLE10=Ain't no use
TTITLE11=Bobrack
EXTD=
EXTT0=
EXTT1=
EXTT2=
EXTT3=
EXTT4=
EXTT5=
EXTT6=
EXTT7=
EXTT8=
EXTT9=
EXTT10=
EXTT11=
PLAYORDER=
